<svg width="201" height="64" viewBox="0 0 201 64" fill="none" xmlns="http://www.w3.org/2000/svg">
<g filter="url(#filter0_f_92_663)">
<path fill-rule="evenodd" clip-rule="evenodd" d="M178.491 54.3563C170.095 63.8397 166.998 62.3342 171.795 51.9034C176.481 41.7155 177.559 15.7946 177.785 10.3572C177.801 9.97894 177.813 9.69983 177.821 9.53202C177.825 9.45963 177.829 9.37967 177.833 9.29296C177.975 6.30098 178.499 -4.71947 185.588 10.4664C186.277 7.13003 188.139 1.24308 192.786 13.9771C193.24 15.2226 193.617 16.4537 193.92 17.6687C195.209 15.0286 197.327 12.447 198.292 22.4947C199.567 35.758 192.762 45.9995 183.474 51.6935C181.487 52.9114 179.821 53.7912 178.491 54.3563ZM1.99976 59.3909V16.5932H21.154C29.8931 16.5932 34.2627 20.6136 34.2627 28.6544C34.2627 37.3736 28.2869 42.6509 16.3355 44.4866L15.1982 37.4234C22.3811 36.1265 25.9725 33.2833 25.9725 28.8938C25.9725 25.3423 24.1967 23.5666 20.6452 23.5666H9.9308V59.3909H1.99976ZM76.0628 22.8783H81.9288L83.1259 27.9661H91.027V34.2511H83.9938V48.7065C83.9938 51.6395 85.2608 53.106 87.7947 53.106H91.027V59.3909H83.9639C78.6965 59.3909 76.0628 56.5677 76.0628 50.9212V22.8783ZM98.8184 16.5932V59.3909H106.749V23.5666H117.464C121.015 23.5666 122.791 25.3423 122.791 28.8938C122.791 33.2833 119.2 36.1265 112.017 37.4234L113.154 44.4865C125.106 42.6509 131.081 37.3736 131.081 28.6544C131.081 20.6136 126.712 16.5932 117.973 16.5932H98.8184ZM134.802 49.6043C134.802 43.3592 139.352 40.2367 148.45 40.2367C150.585 40.2367 152.72 40.4362 154.854 40.8352V38.4709C154.854 35.6576 152.829 34.251 148.779 34.251C145.347 34.251 141.536 34.7498 137.346 35.7474V29.4625C141.536 28.4648 145.347 27.966 148.779 27.966C158.117 27.966 162.786 31.4177 162.786 38.3212V59.3909H158.177L155.363 56.5776C152.63 58.4531 149.617 59.3909 146.325 59.3909C138.643 59.3909 134.802 56.1287 134.802 49.6043ZM154.854 46.2224C152.859 45.8233 150.724 45.6238 148.45 45.6238C144.639 45.6238 142.733 46.9207 142.733 49.5145C142.733 52.3078 144.33 53.7045 147.522 53.7045C150.156 53.7045 152.6 52.8864 154.854 51.2503V46.2224ZM49.9293 32.6101C50.857 35.6792 53.4737 37.6035 55.7738 36.9083C58.0739 36.213 59.1864 33.1614 58.2587 30.0923C57.331 27.0232 54.7143 25.0989 52.4142 25.7941C50.1141 26.4894 49.0016 29.541 49.9293 32.6101ZM42.2317 50.3403C44.2734 49.0181 44.6609 45.9888 43.0973 43.5742C41.5336 41.1597 38.6109 40.2741 36.5691 41.5963C34.5274 42.9185 34.1399 45.9478 35.7035 48.3624C37.2672 50.7769 40.1899 51.6625 42.2317 50.3403ZM54.11 60.3616C54.9296 59.8308 55.6032 59.1651 56.1161 58.421C58.1209 56.1926 58.6834 56.0281 61.8962 56.2643C62.7597 56.4247 63.6786 56.4258 64.6075 56.2401C68.2035 55.5211 70.5861 52.2748 69.9292 48.9891C69.4072 46.3782 67.123 44.5281 64.4024 44.2391C61.5849 43.2482 60.0069 42.3044 58.7676 41.4968C57.2804 40.1171 55.067 39.4532 52.7942 39.9076C49.5915 40.5479 47.3513 43.193 47.3637 46.0852C47.0383 47.8892 46.5958 49.9855 45.6276 51.9498C44.1069 54.0222 43.8658 56.7582 45.2389 58.8784C47.0602 61.6909 51.0319 62.3549 54.11 60.3616ZM66.078 40.6494C63.6927 41.1263 61.3019 39.2261 60.738 36.4052C60.174 33.5844 61.6504 30.9111 64.0357 30.4342C66.4209 29.9573 68.8118 31.8575 69.3757 34.6783C69.9397 37.4992 68.4632 40.1725 66.078 40.6494ZM46.8427 40.5379C48.9758 39.4315 49.5082 36.2274 48.032 33.3812C46.5559 30.535 43.63 29.1246 41.4969 30.2309C39.3639 31.3372 38.8314 34.5414 40.3076 37.3876C41.7838 40.2337 44.7096 41.6442 46.8427 40.5379Z" fill="#371C24"/>
</g>
<path fill-rule="evenodd" clip-rule="evenodd" d="M181.046 52.7298C172.65 62.2137 169.552 60.7084 174.35 50.2774C179.035 40.0896 180.113 14.1686 180.34 8.73121C180.355 8.35297 180.367 8.07386 180.375 7.90604C180.379 7.83366 180.383 7.75369 180.387 7.66699C180.529 4.67504 181.053 -6.34518 188.142 8.8399C188.831 5.50349 190.692 -0.383414 195.34 12.3506C195.794 13.5962 196.171 14.8274 196.474 16.0425C197.763 13.4024 199.881 10.821 200.846 20.8685C202.121 34.1319 195.316 44.3734 186.028 50.0673C184.041 51.2851 182.375 52.1647 181.046 52.7298ZM4.5542 57.765V14.9672H23.7084C32.4475 14.9672 36.8171 18.9876 36.8171 27.0284C36.8171 35.7476 30.8414 41.025 18.8899 42.8606L17.7527 35.7975C24.9355 34.5006 28.5269 31.6574 28.5269 27.2678C28.5269 23.7163 26.7512 21.9406 23.1996 21.9406H12.4852V57.765H4.5542ZM78.6172 21.2523H84.4832L85.6803 26.3401H93.5815V32.6251H86.5483V47.0805C86.5483 50.0135 87.8152 51.48 90.3492 51.48H93.5815V57.765H86.5183C81.2509 57.765 78.6172 54.9417 78.6172 49.2952V21.2523ZM101.373 14.9672V57.7649H109.304V21.9406H120.018C123.57 21.9406 125.346 23.7163 125.346 27.2678C125.346 31.6574 121.754 34.5005 114.571 35.7974L115.709 42.8605C127.66 41.0249 133.636 35.7476 133.636 27.0284C133.636 18.9876 129.266 14.9672 120.527 14.9672H101.373ZM137.357 47.9783C137.357 41.7332 141.906 38.6107 151.004 38.6107C153.139 38.6107 155.274 38.8102 157.409 39.2093V36.8449C157.409 34.0316 155.384 32.625 151.333 32.625C147.902 32.625 144.091 33.1238 139.901 34.1214V27.8365C144.091 26.8389 147.902 26.3401 151.333 26.3401C160.671 26.3401 165.34 29.7918 165.34 36.6953V57.7649H160.731L157.918 54.9516C155.184 56.8271 152.171 57.7649 148.879 57.7649C141.198 57.7649 137.357 54.5027 137.357 47.9783ZM157.409 44.5964C155.414 44.1973 153.279 43.9978 151.004 43.9978C147.193 43.9978 145.288 45.2947 145.288 47.8885C145.288 50.6818 146.884 52.0785 150.076 52.0785C152.71 52.0785 155.154 51.2605 157.409 49.6244V44.5964ZM52.4836 30.9837C53.4113 34.0528 56.028 35.9772 58.3281 35.2819C60.6282 34.5866 61.7407 31.535 60.813 28.4659C59.8853 25.3968 57.2686 23.4725 54.9685 24.1678C52.6684 24.863 51.5559 27.9146 52.4836 30.9837ZM44.786 48.7143C46.8277 47.3921 47.2152 44.3628 45.6516 41.9482C44.0879 39.5336 41.1652 38.6481 39.1235 39.9703C37.0817 41.2925 36.6942 44.3218 38.2578 46.7363C39.8215 49.1509 42.7442 50.0365 44.786 48.7143ZM56.6643 58.7355C57.4831 58.2053 58.1561 57.5405 58.6688 56.7973C60.6759 54.5662 61.2374 54.4024 64.4548 54.6391C65.3171 54.7987 66.2345 54.7994 67.1618 54.614C70.7578 53.8951 73.1404 50.6487 72.4835 47.3631C71.9615 44.7521 69.6773 42.9021 66.9567 42.6131C64.1401 41.6226 62.5622 40.679 61.3231 39.8716C59.836 38.4911 57.6219 37.8267 55.3485 38.2812C52.1457 38.9215 49.9054 41.5669 49.918 44.4592C49.5926 46.2632 49.1501 48.3595 48.1819 50.3238C46.6612 52.3962 46.4201 55.1322 47.7932 57.2524C49.6145 60.0649 53.5862 60.7289 56.6643 58.7355ZM68.6323 39.0233C66.247 39.5002 63.8562 37.6001 63.2923 34.7792C62.7283 31.9584 64.2047 29.285 66.59 28.8082C68.9752 28.3313 71.3661 30.2314 71.93 33.0523C72.494 35.8731 71.0175 38.5465 68.6323 39.0233ZM49.397 38.9115C51.5301 37.8052 52.0625 34.601 50.5863 31.7548C49.1102 28.9086 46.1843 27.4982 44.0512 28.6045C41.9182 29.7108 41.3857 32.915 42.8619 35.7612C44.3381 38.6074 47.2639 40.0178 49.397 38.9115Z" fill="url(#paint0_linear_92_663)"/>
<mask id="mask0_92_663" style="mask-type:alpha" maskUnits="userSpaceOnUse" x="4" y="1" width="197" height="59">
<path fill-rule="evenodd" clip-rule="evenodd" d="M181.046 52.7298C172.65 62.2137 169.552 60.7084 174.349 50.2774C179.035 40.0896 180.113 14.1686 180.339 8.73121C180.355 8.35297 180.367 8.07386 180.375 7.90605C180.377 7.86483 180.379 7.82116 180.382 7.77519L180.387 7.66699C180.529 4.67504 181.053 -6.3452 188.142 8.83995C188.831 5.50355 190.692 -0.383479 195.339 12.3506C195.794 13.5962 196.171 14.8274 196.474 16.0425C197.763 13.4024 199.881 10.821 200.846 20.8685C202.121 34.1319 195.316 44.3734 186.027 50.0673C184.041 51.2851 182.375 52.1647 181.046 52.7298ZM4.55396 57.7653V14.9676H23.7082C32.4473 14.9676 36.8169 18.988 36.8169 27.0288C36.8169 35.7479 30.8411 41.0253 18.8897 42.8609L17.7524 35.7978C24.9353 34.5009 28.5267 31.6577 28.5267 27.2682C28.5267 23.7167 26.7509 21.9409 23.1994 21.9409H12.485V57.7653H4.55396ZM78.617 21.2527H84.483L85.6801 26.3405H93.5812V32.6255H86.548V47.0809C86.548 50.0139 87.815 51.4804 90.3489 51.4804H93.5812V57.7653H86.5181C81.2507 57.7653 78.617 54.9421 78.617 49.2956V21.2527ZM101.373 14.9676V57.7652H109.304V21.9409H120.018C123.57 21.9409 125.345 23.7167 125.345 27.2682C125.345 31.6577 121.754 34.5009 114.571 35.7978L115.708 42.8609C127.66 41.0253 133.635 35.7479 133.635 27.0288C133.635 18.988 129.266 14.9676 120.527 14.9676H101.373ZM137.357 47.9787C137.357 41.7336 141.906 38.611 151.004 38.611C153.139 38.611 155.274 38.8106 157.409 39.2096V36.8453C157.409 34.032 155.384 32.6254 151.333 32.6254C147.901 32.6254 144.091 33.1242 139.901 34.1218V27.8368C144.091 26.8392 147.901 26.3404 151.333 26.3404C160.671 26.3404 165.34 29.7921 165.34 36.6956V57.7652H160.731L157.917 54.952C155.184 56.8275 152.171 57.7652 148.879 57.7652C141.197 57.7652 137.357 54.5031 137.357 47.9787ZM157.409 44.5967C155.413 44.1977 153.279 43.9982 151.004 43.9982C147.193 43.9982 145.288 45.2951 145.288 47.8889C145.288 50.6822 146.884 52.0789 150.076 52.0789C152.71 52.0789 155.154 51.2608 157.409 49.6247V44.5967ZM52.4833 30.9837C53.411 34.0528 56.0277 35.9772 58.3278 35.2819C60.6279 34.5866 61.7404 31.535 60.8127 28.4659C59.885 25.3968 57.2683 23.4725 54.9682 24.1678C52.6681 24.863 51.5556 27.9146 52.4833 30.9837ZM44.7856 48.7143C46.8273 47.3921 47.2149 44.3628 45.6512 41.9482C44.0876 39.5336 41.1648 38.6481 39.1231 39.9703C37.0814 41.2925 36.6939 44.3218 38.2575 46.7363C39.8212 49.1509 42.7439 50.0365 44.7856 48.7143ZM56.664 58.7355C57.4831 58.2051 58.1564 57.5399 58.6692 56.7962C60.6752 54.5664 61.2372 54.4022 64.4524 54.6387C65.3153 54.7986 66.2334 54.7996 67.1615 54.614C70.7575 53.8951 73.1401 50.6487 72.4832 47.3631C71.9612 44.7521 69.6769 42.9021 66.9564 42.6131C64.1398 41.6226 62.5619 40.679 61.3228 39.8716C59.8357 38.4911 57.6216 37.8267 55.3482 38.2812C52.1453 38.9215 49.905 41.5669 49.9176 44.4592C49.5923 46.2632 49.1498 48.3595 48.1816 50.3238C46.6609 52.3962 46.4198 55.1322 47.7928 57.2524C49.6142 60.0649 53.5859 60.7289 56.664 58.7355ZM68.632 39.0233C66.2467 39.5002 63.8559 37.6001 63.2919 34.7792C62.728 31.9584 64.2044 29.285 66.5897 28.8082C68.9749 28.3313 71.3657 30.2314 71.9297 33.0523C72.4936 35.8731 71.0172 38.5465 68.632 39.0233ZM49.3967 38.9115C51.5297 37.8052 52.0622 34.601 50.586 31.7548C49.1098 28.9086 46.1839 27.4982 44.0509 28.6045C41.9178 29.7108 41.3853 32.915 42.8615 35.7612C44.3377 38.6074 47.2636 40.0178 49.3967 38.9115Z" fill="url(#paint1_linear_92_663)"/>
</mask>
<g mask="url(#mask0_92_663)">
<path fill-rule="evenodd" clip-rule="evenodd" d="M105.189 18.4835C105.864 17.9047 106.5 19.1504 106.067 20.2032L100.346 34.1322L105.189 29.9761C105.864 29.3974 106.5 30.6431 106.067 31.6959L100.346 45.6243L105.189 41.4684C105.864 40.8897 106.5 42.1354 106.067 43.1882L99.8725 58.2699C99.5937 58.9487 99.0251 59.0396 98.7258 58.4533L95.2591 51.6619C94.9598 51.0755 95.0931 50.1319 95.5279 49.7588L98.7455 46.9979C98.7388 46.9859 98.7322 46.9736 98.7258 46.961L95.2591 40.1696C94.9598 39.5832 95.0931 38.6396 95.5279 38.2665L98.7456 35.5055C98.7389 35.4934 98.7323 35.481 98.7258 35.4683L95.2591 28.6769C94.9598 28.0906 95.0931 27.1469 95.5279 26.7738L105.189 18.4835Z" fill="#E59A57"/>
<path fill-rule="evenodd" clip-rule="evenodd" d="M8.14112 18.4835C8.81558 17.9047 9.45143 19.1504 9.01898 20.2032L3.29761 34.1322L8.14112 29.9761C8.81558 29.3974 9.45143 30.6431 9.01898 31.6959L3.29784 45.6243L8.14112 41.4684C8.81558 40.8897 9.45143 42.1354 9.01898 43.1882L2.82412 58.2699C2.54531 58.9487 1.97673 59.0396 1.67743 58.4533L-1.78923 51.6619C-2.08853 51.0755 -1.95523 50.1319 -1.52041 49.7588L1.69712 46.9979C1.69044 46.9859 1.68387 46.9736 1.67743 46.961L-1.78923 40.1696C-2.08853 39.5832 -1.95523 38.6396 -1.52041 38.2665L1.69725 35.5055C1.69052 35.4934 1.68392 35.481 1.67743 35.4683L-1.78923 28.6769C-2.08853 28.0906 -1.95523 27.1469 -1.52041 26.7738L8.14112 18.4835Z" fill="#E59A57"/>
<path d="M190.886 39.9249C190.015 40.4149 189.048 39.4148 189.494 38.5203C191.868 33.7554 196.334 23.4182 199.269 8.19807C203.427 -13.3657 207.896 -1.23551 211.726 13.4494C214.768 25.1087 197.947 35.9517 190.886 39.9249Z" fill="#FDFDFB"/>
<path d="M189.005 31.1607C188.344 31.9103 187.102 31.2844 187.228 30.2931C187.9 25.0122 188.712 13.7806 186.47 -1.55681C183.294 -23.2869 191.509 -13.3054 199.962 -0.701535C206.674 9.30544 194.363 25.0837 189.005 31.1607Z" fill="#FDFDFB"/>
<path d="M184.69 23.9005C184.171 24.7545 182.838 24.3564 182.788 23.3583C182.522 18.0415 181.35 6.84182 176.45 -7.86364C169.507 -28.6983 179.347 -20.3143 189.882 -9.39077C198.247 -0.717853 188.898 16.9771 184.69 23.9005Z" fill="#FDFDFB"/>
</g>
<defs>
<filter id="filter0_f_92_663" x="-0.000244141" y="0.625977" width="200.446" height="62.8855" filterUnits="userSpaceOnUse" color-interpolation-filters="sRGB">
<feFlood flood-opacity="0" result="BackgroundImageFix"/>
<feBlend mode="normal" in="SourceGraphic" in2="BackgroundImageFix" result="shape"/>
<feGaussianBlur stdDeviation="1" result="effect1_foregroundBlur_92_663"/>
</filter>
<linearGradient id="paint0_linear_92_663" x1="102.88" y1="-2.19237" x2="102.88" y2="66.1243" gradientUnits="userSpaceOnUse">
<stop offset="0.624652" stop-color="#FEBB75"/>
</linearGradient>
<linearGradient id="paint1_linear_92_663" x1="102.879" y1="-2.19237" x2="102.879" y2="66.1243" gradientUnits="userSpaceOnUse">
<stop offset="0.624652" stop-color="#FEBB75"/>
</linearGradient>
</defs>
</svg>
